Patient5_TMGait_0pt45_1_right_08_EMG.mot
version=1
nRows=19
nColumns=33
inDegrees=no
endheader
time	1LAddLong	2LGlutMax	3LGlutMed	4LIliopsoas	5LSemiMemb	6LBicFemLong	7LRecFem	8LTensFascLat	9LVastMed	10LVasLat	11LGasMed	12lGasLat	13LTibAnt	14LPeroneusLong	15LSol	16LTibPost	17RAddLong	18RGlutMax	19RGlutMed	20RIliopsoas	21RSemiMemb	22RBicFemLong	23RRecFem	24RTensFascLat	25RVastMed	26RVasLat	27RGasMed	28RGasLat	29RTibAnt	30RPeroneusLong	31RSol	32RTibPost
12.85	-0.001068	0.016174	0.029907	0.028076	0.013275	0.56015	0.006104	0.1059	-0.016785	0.023346	0.02121	-0.00351	-0.053558	0.007019	0.040131	-0.020447	0.003357	-0.006714	0.062866	0.052185	0.044556	0.006866	0.004272	0.012512	-0.000305	-0.000305	0.004272	0.003815	0.002899	-0.003967	-0.014038	-0.006409
12.851	-0.011902	0.009308	0.018463	0.018921	-0.011444	0.50796	0.018311	0.26138	-0.008087	0.016479	-0.050049	0.005341	-0.063324	0.013885	0.009003	0.018768	0.007935	-0.004425	0.088806	-0.058899	0.047455	0.009918	0.003967	-0.022583	0.000153	0.003204	0.005188	0.011444	0.014343	-0.001221	-0.024109	0.00351
12.852	0.005493	0.00824	-0.009766	0.042877	0.006714	0.25375	0.022278	0.33402	0.004272	0.010834	-0.03479	0.014343	-0.062103	0.014038	0.009613	0.09964	0.011444	-0.000153	0.09964	0.046387	0.049286	0.011597	0.001526	-0.082855	0.000458	-0.006866	0.013123	0.011749	0.017242	0.00351	-0.030975	0.005035
12.853	0.034485	-0.001526	-0.092773	0.015259	0.002441	-0.053406	0.024109	0.20828	0.007019	0.006409	-0.073547	0.013428	-0.073547	0.008698	0.034485	0.054932	0.019836	-0.002136	0.07431	0.049744	0.062256	0.006714	0.006104	-0.14008	0.001526	0	0.011902	0.015106	0.015869	0.001526	-0.044556	0.005188
12.854	0.048523	-0.009918	-0.1651	-0.0177	0.019836	-0.26794	0.022125	0.03891	0.023956	-0.007477	-0.10986	0.010681	-0.021057	0.021667	0.038757	0.030212	0.0177	-0.002136	0.002899	0.26886	0.064392	0.007782	0.015717	-0.16373	0.001221	0.001984	0.007935	-0.010223	0.001068	0.006256	-0.046997	0.011292
12.855	0.026855	-0.010223	-0.18677	-0.012207	0.004272	-0.34882	0.014038	0.049133	0.03067	-0.018616	0.017853	0.002747	0.0177	0.012665	-0.06424	-0.071106	0.015411	-0.001068	0.034332	-0.021973	0.04715	0.004425	0.014648	-0.15274	0.000153	0.001526	0.010071	-0.019989	-0.015411	-0.00061	-0.041962	0.010376
12.856	0.01236	-0.011749	-0.098114	-0.022278	0.018158	-0.44571	0.001526	0.15472	0.029602	-0.011597	0.021057	-0.015259	0.03006	-0.015717	-0.068665	-0.14069	0.018311	-0.002747	0.022278	-0.038757	0.047913	-0.003967	0.005493	-0.13138	0	-0.006409	0.002441	-0.014954	-0.02533	0.005951	-0.036316	0.001984
12.857	0.005798	-0.01236	0.14908	-0.009918	0.046692	-0.52124	-0.005646	0.32257	0.0354	-0.017242	0.007935	0.002594	0.0383	-0.007019	-0.002441	0.096436	0.019989	-0.001221	-0.00885	-0.01709	0.065918	0.005493	-0.010681	-0.13382	-0.007324	-0.003357	-0.010376	-0.016174	-0.022888	0.005493	-0.013733	-0.002594
12.858	0.019989	-0.00412	0.22903	-0.009766	0.062256	-0.36118	-0.023956	0.3389	0.036011	-0.012665	-0.06424	-0.001984	0.024719	0.003204	0.010529	-0.009155	0.012512	-0.003967	-0.060272	-0.023041	0.057678	0.001221	-0.000305	-0.076294	-0.01358	-0.000153	-0.007019	-0.013275	-0.02243	0.009155	-0.043945	-0.008392
12.859	0.023346	0.012665	0.18478	-0.011139	0.041809	-0.2066	-0.020294	0.2803	0.019836	-0.004883	0.006561	0.014343	0.02182	0.023041	0.071564	0.13397	0.018616	-0.00885	-0.031891	-0.1091	0.044708	0.000458	-0.00061	-0.001831	-0.005646	0	-0.00061	-0.016327	-0.021362	-0.002594	-0.05127	0.001526
12.86	0.014343	0.010681	0.1033	0.002747	0.036926	-0.085297	-0.010223	0.20386	0.009155	0.000916	0.079956	0.002747	0.018616	0.019836	0.061035	0.056	0.013885	-0.009155	0.027008	0.018311	0.051422	0.000153	0.000305	0.12314	-0.02182	0.003052	-0.004272	-0.02243	-0.011444	-0.014496	-0.027161	-0.006561
12.861	0.016174	0.028687	-0.034485	-0.000458	0.023041	-0.10376	-0.01358	0.027008	0.01297	0.008545	0.06958	-0.004578	0.015259	0.024567	0.033875	-0.023346	0.015411	-0.007477	-0.032349	0.060577	0.056915	-0.001373	0.000916	0.23086	-0.017395	0.000916	0.000305	-0.015869	-0.02182	-0.038147	0.012054	-0.00824
12.862	0.007019	0.032806	-0.075378	0.007782	-0.036774	-0.034027	-0.008545	0.007324	0.019226	0.011444	0.045166	-0.007324	0.010681	0.016327	0.00824	-0.022278	0.018768	-0.006256	-0.040283	-0.064545	0.040588	0.00412	-0.000763	0.21957	-0.011749	-0.001678	0.006714	-0.02594	-0.017853	-0.050049	0.024261	-0.00351
12.863	-0.03006	0.039825	-0.029144	-0.007324	-0.01709	0.005188	0.000763	0.071716	0.058899	0.002136	-0.0383	-0.010986	-0.028076	0.003204	-0.022888	-0.032043	0.028839	-0.003662	-0.063171	-0.11826	0.043182	0.004883	0.001678	0.1976	-0.015717	0.00061	0.004272	-0.003967	-0.016174	-0.018005	0.007019	0.007172
12.864	-0.044098	0.030365	-0.081177	0.00473	-0.011139	0.050507	-0.003052	-0.030518	0.086823	0.002747	-0.093231	0.008545	-0.090027	-0.002747	0.010986	0.043335	0.020447	-0.003357	-0.033722	-0.015106	0.042877	0.007477	0.002594	0.13947	-0.014038	0.009918	-0.005493	0.007477	-0.01297	-0.009613	-0.009766	0.009003
12.865	-0.045471	0.013428	-0.039368	0.011597	-0.018005	0.11871	0.001831	-0.085297	0.071564	-0.006256	-0.094604	0.015411	-0.11581	0.014954	0.069427	-0.046539	0.019531	-0.002289	-0.01709	-0.054626	0.047302	0.003204	0.002136	0.13092	-0.011292	0.007172	0.001221	0.008087	-0.00946	-0.002899	-0.022125	0.004272
12.866	-0.057678	0.009003	-0.018921	-0.005951	-0.029602	0.053253	-0.000153	-0.20355	0.050812	-0.013428	-0.039978	0.013885	-0.093079	-0.006409	0.079346	0.052795	0.01358	-0.001678	0.046844	-0.014038	0.046844	0.006714	0.005798	0.074615	-0.01358	0.012665	0.001068	0.003967	-0.01236	-0.002289	-0.018005	-0.00061
12.867	-0.073242	0.001373	-0.11764	-0.003967	-0.035553	0.027771	-0.009003	-0.35355	0.046997	-0.024872	0.1683	0.015869	0.019073	-0.027466	0.079803	-0.042877	0.023651	-0.00824	0.097656	0.033569	0.052795	0.003967	0.003204	0.014801	-0.011902	-0.001068	0.001373	0.006714	-0.019836	-0.000305	-0.017548	0.007477
12.868	-0.084381	-0.002289	-0.08606	0.019836	-0.017853	0.028381	-0.011292	-0.31265	0.033722	-0.044556	0.031738	0.011749	0.20828	-0.020905	0.0737	0.014954	0.016174	-0.005493	0.15091	0.019531	0.052948	-0.00061	-0.001068	-0.021667	-0.010529	-0.005493	-0.007629	0.011139	-0.019684	-0.001678	-0.018463	0.004578
